<svg width="113" height="113" viewBox="0 0 113 113" fill="none" xmlns="http://www.w3.org/2000/svg">
<rect width="113" height="113" rx="56.5" fill="#0F0F0F"/>
<path d="M46.3768 62.0436V54.4637L72.56 43.3858V51.6761L55.2734 58.1808L55.5446 57.7801V58.7458L55.2734 58.3265L72.56 64.8495V73.1217L46.3768 62.0436Z" fill="white"/>
<path d="M64.2372 34.2392L52.3027 78.9159H44.7624L56.6968 34.2392H64.2372Z" fill="white"/>
<mask id="mask0_364_153" style="mask-type:luminance" maskUnits="userSpaceOnUse" x="42" y="32" width="25" height="49">
<path d="M66.9508 32H42V81H66.9508V32Z" fill="white"/>
<path d="M64.2363 34.239L52.3019 78.9156H44.7615L56.6959 34.239H64.2363Z" fill="black"/>
</mask>
<g mask="url(#mask0_364_153)">
<path d="M64.5919 35.6646L66.5587 36.1981L67.2494 33.6123H64.5919V35.6646ZM52.6575 80.3413V82.3936H54.2186L54.6243 80.8746L52.6575 80.3413ZM45.1172 80.3413L43.1504 79.8079L42.4596 82.3936H45.1172V80.3413ZM57.0515 35.6646V33.6123H55.4905L55.0847 35.1311L57.0515 35.6646ZM62.6251 35.1311L50.6907 79.8079L54.6243 80.8746L66.5587 36.1981L62.6251 35.1311ZM52.6575 78.2889H45.1172V82.3936H52.6575V78.2889ZM47.0839 80.8746L59.0183 36.1981L55.0847 35.1311L43.1504 79.8079L47.0839 80.8746ZM57.0515 37.717H64.5919V33.6123H57.0515V37.717Z" fill="#0F0F0F"/>
</g>
</svg>
