<svg width="120" height="114" viewBox="0 0 120 114" fill="none" xmlns="http://www.w3.org/2000/svg">
<path d="M40.1371 91.2656C40.1371 91.7344 39.5806 92.1094 38.879 92.1094C38.0806 92.1797 37.5242 91.8047 37.5242 91.2656C37.5242 90.7969 38.0806 90.4219 38.7823 90.4219C39.5081 90.3516 40.1371 90.7266 40.1371 91.2656ZM32.6129 90.2109C32.4435 90.6797 32.9274 91.2187 33.6532 91.3594C34.2823 91.5937 35.0081 91.3594 35.1532 90.8906C35.2984 90.4219 34.8387 89.8828 34.1129 89.6719C33.4839 89.5078 32.7823 89.7422 32.6129 90.2109ZM43.3065 89.8125C42.6048 89.9766 42.121 90.4219 42.1935 90.9609C42.2661 91.4297 42.8952 91.7344 43.621 91.5703C44.3226 91.4063 44.8064 90.9609 44.7339 90.4922C44.6613 90.0469 44.0081 89.7422 43.3065 89.8125ZM59.2258 0C25.6694 0 0 24.6797 0 57.1875C0 83.1797 16.8871 105.422 41.0081 113.25C44.1048 113.789 45.1935 111.938 45.1935 110.414C45.1935 108.961 45.121 100.945 45.121 96.0234C45.121 96.0234 28.1855 99.5391 24.629 89.0391C24.629 89.0391 21.871 82.2187 17.9032 80.4609C17.9032 80.4609 12.3629 76.7812 18.2903 76.8516C18.2903 76.8516 24.3145 77.3203 27.629 82.8984C32.9274 91.9453 41.8065 89.3438 45.2661 87.7969C45.8226 84.0469 47.3952 81.4453 49.1371 79.8984C35.6129 78.4453 21.9677 76.5469 21.9677 54C21.9677 47.5547 23.8065 44.3203 27.6774 40.1953C27.0484 38.6719 24.9919 32.3906 28.3065 24.2812C33.3629 22.7578 45 30.6094 45 30.6094C49.8387 29.2969 55.0403 28.6172 60.1935 28.6172C65.3468 28.6172 70.5484 29.2969 75.3871 30.6094C75.3871 30.6094 87.0242 22.7344 92.0806 24.2812C95.3952 32.4141 93.3387 38.6719 92.7097 40.1953C96.5806 44.3438 98.9516 47.5781 98.9516 54C98.9516 76.6172 84.7016 78.4219 71.1774 79.8984C73.4032 81.75 75.2903 85.2656 75.2903 90.7734C75.2903 98.6719 75.2177 108.445 75.2177 110.367C75.2177 111.891 76.3306 113.742 79.4032 113.203C103.597 105.422 120 83.1797 120 57.1875C120 24.6797 92.7823 0 59.2258 0ZM23.5161 80.8359C23.2016 81.0703 23.2742 81.6094 23.6855 82.0547C24.0726 82.4297 24.629 82.5938 24.9435 82.2891C25.2581 82.0547 25.1855 81.5156 24.7742 81.0703C24.3871 80.6953 23.8306 80.5312 23.5161 80.8359ZM20.9032 78.9375C20.7339 79.2422 20.9758 79.6172 21.4597 79.8516C21.8468 80.0859 22.3306 80.0156 22.5 79.6875C22.6694 79.3828 22.4274 79.0078 21.9435 78.7734C21.4597 78.6328 21.0726 78.7031 20.9032 78.9375ZM28.7419 87.2812C28.3548 87.5859 28.5 88.2891 29.0565 88.7344C29.6129 89.2734 30.3145 89.3438 30.629 88.9688C30.9435 88.6641 30.7984 87.9609 30.3145 87.5156C29.7823 86.9766 29.0565 86.9062 28.7419 87.2812ZM25.9839 83.8359C25.5968 84.0703 25.5968 84.6797 25.9839 85.2188C26.371 85.7578 27.0242 85.9922 27.3387 85.7578C27.7258 85.4531 27.7258 84.8438 27.3387 84.3047C27 83.7656 26.371 83.5313 25.9839 83.8359Z" fill="white"/>
</svg>
