<svg width="55" height="100" viewBox="0 0 55 100" fill="none" xmlns="http://www.w3.org/2000/svg">
<path d="M37.4197 11.1457C32.5167 6.1661 28.2947 1.1087 27.4322 0.05835C27.3412 -0.01945 27.2052 -0.01945 27.1147 0.05835C26.2517 1.1087 22.0302 6.1661 17.1271 11.1457C-24.9554 57.09 23.7552 88.096 23.7552 88.096L24.1637 88.329C24.5267 93.114 25.4347 100 25.4347 100H27.2502H29.0662C29.0662 100 29.9747 93.1525 30.3377 88.329L30.7462 88.057C30.7912 88.057 79.5022 57.09 37.4197 11.1457ZM27.2502 87.3955C27.2502 87.3955 25.0717 85.8005 24.4812 84.983V84.9055L27.1147 34.8765C27.1147 34.7208 27.3867 34.7208 27.3867 34.8765L30.0202 84.9055V84.983C29.4297 85.8005 27.2502 87.3955 27.2502 87.3955Z" fill="#22C55E"/>
</svg>
