<svg width="120" height="120" viewBox="0 0 120 120" fill="none" xmlns="http://www.w3.org/2000/svg">
<g clip-path="url(#clip0_2016_20)">
<path d="M60.0008 120.002C93.1383 120.002 120.002 93.1383 120.002 60.0008C120.002 26.8633 93.1383 0 60.0008 0C26.8633 0 0 26.8633 0 60.0008C0 93.1383 26.8633 120.002 60.0008 120.002Z" fill="black"/>
<path d="M99.6733 105.015L46.0953 36.0005H36.0005V83.9811H44.0766V46.2566L93.3339 109.898C95.5533 108.413 97.6712 106.782 99.6733 105.015Z" fill="url(#paint0_linear_2016_20)"/>
<path d="M76.6676 36.0005H84.6677V84.0011H76.6676V36.0005Z" fill="url(#paint1_linear_2016_20)"/>
</g>
<defs>
<linearGradient id="paint0_linear_2016_20" x1="72.6676" y1="77.6677" x2="96.3346" y2="107.001" gradientUnits="userSpaceOnUse">
<stop stop-color="white"/>
<stop offset="1" stop-color="white" stop-opacity="0"/>
</linearGradient>
<linearGradient id="paint1_linear_2016_20" x1="80.6677" y1="36.0005" x2="80.5337" y2="71.2509" gradientUnits="userSpaceOnUse">
<stop stop-color="white"/>
<stop offset="1" stop-color="white" stop-opacity="0"/>
</linearGradient>
<clipPath id="clip0_2016_20">
<rect width="120" height="120" fill="white"/>
</clipPath>
</defs>
</svg>
