<svg width="120" height="120" viewBox="0 0 120 120" fill="none" xmlns="http://www.w3.org/2000/svg">
<path d="M54.96 1.60134C57.96 -0.0974106 61.785 -0.104911 64.71 1.60134L109.5 26.8501C112.301 28.4251 114.176 31.5488 114.15 34.7776V85.4026C114.169 88.7663 112.11 91.9576 109.155 93.5026L64.605 118.635C63.0812 119.477 61.3598 119.896 59.6195 119.848C57.8793 119.8 56.1836 119.286 54.7087 118.361L41.34 110.636C40.4287 110.093 39.405 109.661 38.76 108.78C39.33 108.015 40.3425 107.918 41.1675 107.58C43.0275 106.988 44.73 106.08 46.44 105.12C46.8712 104.82 47.4 104.933 47.8125 105.203L59.2125 111.795C60.0262 112.264 60.8512 111.645 61.5487 111.251L105.292 86.5651C105.832 86.3026 106.133 85.7326 106.088 85.1401V35.0026C106.148 34.3276 105.761 33.7126 105.15 33.4388L60.7125 8.41509C60.4564 8.23797 60.1526 8.14277 59.8412 8.1421C59.5298 8.14143 59.2256 8.23532 58.9687 8.41134L14.595 33.4876C13.995 33.7613 13.5825 34.3688 13.6575 35.0438V85.1813C13.605 85.7738 13.92 86.3326 14.4637 86.5876L26.3212 93.2813C28.5487 94.4813 31.2825 95.1563 33.735 94.2751C34.8082 93.8706 35.7322 93.1477 36.383 92.2034C37.0338 91.259 37.3804 90.1382 37.3762 88.9913L37.3875 39.1538C37.335 38.4151 38.0325 37.8038 38.7487 37.8788H44.4487C45.1987 37.8601 45.7875 38.6551 45.6862 39.3976L45.675 89.5501C45.6787 94.0051 43.8487 98.8501 39.7275 101.036C34.65 103.661 28.3725 103.11 23.355 100.586L10.605 93.5363C7.60499 92.0363 5.59124 88.7963 5.60999 85.4363V34.8113C5.62247 33.1659 6.07481 31.5538 6.92012 30.1421C7.76543 28.7304 8.97295 27.5705 10.4175 26.7826L54.96 1.60134ZM67.875 36.6938C74.3512 36.3188 81.285 36.4463 87.1125 39.6376C91.6237 42.0826 94.125 47.2126 94.2075 52.2301C94.08 52.9051 93.375 53.2801 92.73 53.2313C90.855 53.2276 88.9725 53.2576 87.09 53.2201C86.2912 53.2501 85.83 52.5151 85.7287 51.8101C85.1887 49.4101 83.88 47.0363 81.6225 45.8776C78.1575 44.1413 74.1375 44.2276 70.3575 44.2651C67.5975 44.4151 64.6312 44.6513 62.295 46.2713C60.495 47.5013 59.955 50.0213 60.5962 51.9788C61.1962 53.4151 62.8575 53.8763 64.2112 54.3038C72.0187 56.3438 80.2875 56.1788 87.9487 58.8301C91.1175 59.9251 94.2188 62.0551 95.3063 65.3738C96.7238 69.8213 96.105 75.1388 92.9437 78.7088C90.3787 81.6488 86.6437 83.2088 82.9125 84.1163C77.9512 85.2226 72.8062 85.2488 67.77 84.7538C63.0337 84.2138 58.1062 82.9688 54.45 79.7438C51.3225 77.0288 49.8 72.7988 49.95 68.7188C49.9875 68.0288 50.6737 67.5488 51.3375 67.6051H56.9625C57.72 67.5526 58.275 68.2051 58.3125 68.9176C58.6612 71.1676 59.52 73.6051 61.515 74.9176C65.3625 77.4001 70.1887 77.2276 74.5912 77.2988C78.24 77.1376 82.335 77.0888 85.3162 74.6738C86.8912 73.2976 87.3525 70.9988 86.9287 69.0188C86.4675 67.3463 84.6787 66.5701 83.1787 66.0188C75.4725 63.5813 67.11 64.4663 59.4787 61.7063C56.3812 60.6113 53.385 58.5413 52.1962 55.3576C50.535 50.8576 51.2962 45.2813 54.795 41.8313C58.17 38.4001 63.12 37.0763 67.8075 36.6038L67.875 36.6938Z" fill="#8CC84B"/>
</svg>
