<svg width="135" height="120" viewBox="0 0 135 120" fill="none" xmlns="http://www.w3.org/2000/svg">
<g clip-path="url(#clip0_2016_38)">
<path d="M111.67 54.8028C111.67 48.2621 104.28 42.0634 92.9488 38.2195C95.5637 25.4195 94.4016 15.2359 89.2806 11.9755C88.1003 11.2108 86.7205 10.8485 85.2133 10.8485V15.3365C86.0485 15.3365 86.7205 15.5177 87.2833 15.8598C89.7528 17.4296 90.8244 23.4069 89.9888 31.0949C89.7894 32.9868 89.4625 34.9792 89.063 37.0119C85.5036 36.0459 81.6178 35.3012 77.5323 34.8182C75.081 31.0949 72.5388 27.7138 69.9783 24.7554C75.8979 18.6573 81.4546 15.3164 85.2316 15.3164V10.8284C80.2377 10.8284 73.7009 14.773 67.0914 21.6157C60.4814 14.8133 53.9446 10.9089 48.9511 10.9089V15.3969C52.7098 15.3969 58.2844 18.7177 64.204 24.7755C61.6618 27.734 59.1196 31.0949 56.7045 34.8182C52.6006 35.3012 48.7148 36.0459 45.1559 37.032C44.7381 35.0195 44.4295 33.0672 44.2114 31.1956C43.3583 23.5076 44.4112 17.5302 46.8629 15.9403C47.4074 15.578 48.1155 15.4171 48.9511 15.4171V10.929C47.4256 10.929 46.0455 11.2913 44.8473 12.0561C39.7446 15.3164 38.6008 25.4799 41.2335 38.2396C29.9391 42.1037 22.5849 48.2824 22.5849 54.8028C22.5849 61.344 29.9754 67.5427 41.3062 71.3865C38.6913 84.1867 39.8534 94.3699 44.9744 97.6304C46.1547 98.395 47.5345 98.7573 49.0599 98.7573C54.0534 98.7573 60.5907 94.8128 67.2002 87.9701C73.8097 94.7727 80.3469 98.6772 85.3404 98.6772C86.8655 98.6772 88.2456 98.3149 89.4443 97.5499C94.5466 94.2894 95.6908 84.1259 93.0576 71.3667C104.316 67.5225 111.67 61.3238 111.67 54.8028ZM88.028 41.3792C87.356 43.9756 86.5208 46.6519 85.5763 49.3287C84.832 47.7189 84.0512 46.1087 83.1977 44.4985C82.3625 42.8886 81.4725 41.3188 80.5828 39.7893C83.1612 40.2119 85.649 40.7352 88.028 41.3792ZM79.7111 62.8129C78.2948 65.5302 76.8424 68.1062 75.3352 70.5013C72.6293 70.7627 69.8878 70.9036 67.1275 70.9036C64.3855 70.9036 61.6435 70.7627 58.9563 70.5211C57.4491 68.126 55.978 65.5703 54.5618 62.8732C53.1817 60.237 51.929 57.5602 50.7848 54.8636C51.9107 52.1666 53.1816 49.4695 54.5439 46.8333C55.9602 44.1164 57.4126 41.5402 58.9198 39.1452C61.6257 38.8836 64.3672 38.7427 67.1275 38.7427C69.8695 38.7427 72.6115 38.8836 75.2986 39.1251C76.8059 41.5201 78.2769 44.0759 79.6932 46.773C81.0733 49.4092 82.326 52.086 83.4702 54.783C82.326 57.4796 81.0733 60.1767 79.7111 62.8129ZM85.5763 60.1969C86.5295 62.8197 87.3659 65.4928 88.0824 68.2065C85.7034 68.8505 83.1977 69.3942 80.6011 69.8167C81.4907 68.2673 82.3804 66.6773 83.216 65.0469C84.0512 63.4371 84.832 61.8067 85.5763 60.1969ZM67.1636 81.671C65.4749 79.7386 63.7862 77.5852 62.1157 75.2306C63.7501 75.3112 65.4205 75.3715 67.1092 75.3715C68.8162 75.3715 70.5049 75.3314 72.1575 75.2306C70.5988 77.4756 68.9318 79.6255 67.1636 81.671ZM53.6539 69.8167C51.0755 69.3942 48.5877 68.8708 46.2091 68.2268C46.8807 65.6306 47.7164 62.9538 48.6604 60.277C49.4051 61.8872 50.1859 63.4974 51.039 65.1072C51.8925 66.7174 52.7642 68.2871 53.6539 69.8167ZM67.0731 27.9352C68.7618 29.8673 70.4505 32.0207 72.121 34.3754C70.4867 34.2949 68.8162 34.2346 67.1275 34.2346C65.4205 34.2346 63.7318 34.2748 62.0796 34.3754C63.6382 32.1305 65.3051 29.9807 67.0731 27.9352ZM53.6356 39.7893C52.746 41.3389 51.8563 42.9288 51.0211 44.5588C50.1859 46.169 49.4051 47.7792 48.6604 49.389C47.7071 46.7662 46.8709 44.093 46.1547 41.3792C48.5333 40.7553 51.039 40.2119 53.6356 39.7893ZM37.2024 64.9866C30.7744 61.9475 26.6161 57.963 26.6161 54.8028C26.6161 51.6432 30.7744 47.6384 37.2024 44.6196C38.764 43.8748 40.471 43.2106 42.2324 42.5867C43.2674 46.5313 44.6292 50.6369 46.318 54.8433C44.6475 59.0295 43.3035 63.1149 42.2868 67.0396C40.4893 66.4154 38.7823 65.7314 37.2024 64.9866ZM46.9717 93.7462C44.5021 92.1765 43.4306 86.1992 44.2662 78.5109C44.466 76.6194 44.7925 74.6267 45.192 72.5939C48.7514 73.5601 52.6372 74.3049 56.7227 74.7878C59.174 78.5109 61.7162 81.892 64.2767 84.8505C58.357 90.9488 52.8004 94.2894 49.0234 94.2894C48.2064 94.2696 47.5166 94.0882 46.9717 93.7462ZM90.0436 78.4105C90.8967 86.0984 89.8438 92.0757 87.3921 93.6657C86.8476 94.0279 86.1395 94.189 85.3039 94.189C81.5451 94.189 75.9706 90.8683 70.051 84.8104C72.5932 81.8519 75.1354 78.4911 77.5505 74.7675C81.6544 74.2846 85.5402 73.5398 89.0991 72.5538C89.5169 74.5866 89.8438 76.5389 90.0436 78.4105ZM97.0344 64.9866C95.4727 65.7314 93.7657 66.3956 92.0043 67.0194C90.9693 63.0748 89.6075 58.9692 87.9188 54.7628C89.5896 50.5766 90.9332 46.4912 91.9499 42.5666C93.7479 43.1905 95.4545 43.8748 97.0526 44.6196C103.481 47.6582 107.639 51.6432 107.639 54.8028C107.621 57.963 103.462 61.9678 97.0344 64.9866Z" fill="#61DAFB"/>
<path d="M67.1092 64.0005C71.6926 64.0005 75.4079 59.8827 75.4079 54.8027C75.4079 49.7232 71.6926 45.6055 67.1092 45.6055C62.5262 45.6055 58.811 49.7232 58.811 54.8027C58.811 59.8827 62.5262 64.0005 67.1092 64.0005ZM26.6301 114.593H23.8908V119.822H22.3449V106.896H26.2056C27.5192 106.896 28.5284 107.228 29.2333 107.891C29.9435 108.553 30.2986 109.518 30.2986 110.785C30.2986 111.59 30.101 112.291 29.7059 112.889C29.3161 113.487 28.7714 113.934 28.0719 114.229L30.8112 119.716V119.822H29.1612L26.6301 114.593ZM23.8908 113.2H26.2537C27.0173 113.2 27.6233 112.98 28.0719 112.543C28.5257 112.105 28.7527 111.519 28.7527 110.785C28.7527 109.986 28.5364 109.373 28.1039 108.947C27.6767 108.521 27.0573 108.305 26.2456 108.299H23.8908V113.2ZM35.8255 120C34.6506 120 33.6947 119.574 32.9578 118.721C32.2209 117.863 31.8525 116.718 31.8525 115.286V114.984C31.8525 114.031 32.0153 113.182 32.341 112.436C32.6721 111.684 33.1314 111.098 33.7187 110.678C34.3115 110.252 34.9523 110.039 35.6411 110.039C36.7679 110.039 37.6437 110.45 38.2682 111.273C38.8931 112.096 39.2054 113.273 39.2054 114.806V115.49H33.3343C33.3556 116.437 33.604 117.203 34.0792 117.789C34.5598 118.369 35.1685 118.659 35.9055 118.659C36.4289 118.659 36.8718 118.541 37.2348 118.304C37.5983 118.068 37.9158 117.754 38.1882 117.363L39.0933 118.144C38.3669 119.381 37.2779 120 35.8255 120ZM35.6411 111.389C35.043 111.389 34.5411 111.631 34.1353 112.116C33.7294 112.596 33.4784 113.271 33.3823 114.141H37.7237V114.016C37.6811 113.182 37.4781 112.537 37.1151 112.081C36.7517 111.619 36.2603 111.389 35.6411 111.389ZM46.2782 119.822C46.1925 119.633 46.1231 119.296 46.0699 118.81C45.3808 119.603 44.5586 120 43.6028 120C42.7485 120 42.0464 119.734 41.4962 119.201C40.9517 118.662 40.6793 117.982 40.6793 117.159C40.6793 116.159 41.0212 115.384 41.7045 114.833C42.3932 114.276 43.36 113.998 44.6041 113.998H46.0459V113.244C46.0459 112.67 45.8908 112.214 45.5814 111.877C45.2716 111.534 44.8148 111.362 44.2114 111.362C43.6828 111.362 43.2398 111.51 42.882 111.806C42.5243 112.101 42.3453 112.46 42.3453 112.88H40.8555C40.8555 112.401 41.0078 111.939 41.3119 111.495C41.6217 111.045 42.0383 110.69 42.5617 110.43C43.0903 110.17 43.6694 110.039 44.2995 110.039C45.2984 110.039 46.0804 110.317 46.6464 110.874C47.2125 111.424 47.506 112.185 47.5275 113.155V117.576C47.5275 118.458 47.6291 119.159 47.8321 119.68V119.822H46.2782ZM43.8192 118.571C44.2837 118.571 44.7242 118.437 45.1408 118.171C45.557 117.905 45.8587 117.559 46.0459 117.132V115.162H44.8842C43.0688 115.162 42.1609 115.75 42.1609 116.928C42.1609 117.443 42.316 117.846 42.6254 118.135C42.9352 118.425 43.3332 118.571 43.8192 118.571ZM53.3266 118.659C53.8553 118.659 54.3173 118.482 54.7124 118.126C55.1075 117.771 55.3264 117.328 55.369 116.795H56.771C56.7442 117.345 56.5733 117.869 56.2582 118.366C55.9431 118.864 55.5212 119.26 54.9926 119.556C54.4692 119.852 53.9141 120 53.3266 120C52.1467 120 51.2067 119.565 50.5071 118.695C49.8131 117.819 49.466 116.623 49.466 115.108V114.833C49.466 113.898 49.6207 113.066 49.9305 112.339C50.2403 111.61 50.6833 111.045 51.2603 110.643C51.8421 110.24 52.5283 110.039 53.3185 110.039C54.2905 110.039 55.0969 110.362 55.7377 111.007C56.3837 111.652 56.728 112.489 56.771 113.519H55.369C55.3264 112.898 55.1128 112.389 54.7283 111.992C54.3494 111.59 53.8792 111.389 53.3185 111.389C52.5657 111.389 51.981 111.69 51.5644 112.294C51.1535 112.892 50.9476 113.759 50.9476 114.895V115.206C50.9476 116.312 51.1535 117.165 51.5644 117.762C51.9757 118.361 52.5632 118.659 53.3266 118.659ZM60.4473 107.891V110.217H62.0654V111.486H60.4473V117.443C60.4473 117.828 60.5196 118.117 60.6637 118.313C60.8079 118.502 61.0535 118.597 61.4007 118.597C61.5712 118.597 61.8063 118.562 62.1052 118.491V119.822C61.7154 119.941 61.3366 120 60.9679 120C60.306 120 59.8066 119.778 59.47 119.334C59.1338 118.89 58.9657 118.26 58.9657 117.443V111.486H57.3874V110.217H58.9657V107.891H60.4473ZM77.0677 119.822H75.5215L69.6506 109.862V119.822H68.1048V106.896H69.6506L75.5378 116.902V106.896H77.0677V119.822ZM84.9173 119.822C84.8316 119.633 84.7622 119.296 84.709 118.81C84.02 119.603 83.1977 120 82.2419 120C81.3876 120 80.6852 119.734 80.1354 119.201C79.5909 118.662 79.3184 117.982 79.3184 117.159C79.3184 116.159 79.6599 115.384 80.3437 114.833C81.0323 114.276 81.9991 113.998 83.2432 113.998H84.685V113.244C84.685 112.67 84.5299 112.214 84.2201 111.877C83.9107 111.534 83.4539 111.362 82.8506 111.362C82.3219 111.362 81.8789 111.51 81.5212 111.806C81.1635 112.101 80.9844 112.46 80.9844 112.88H79.4946C79.4946 112.401 79.6469 111.939 79.951 111.495C80.2608 111.045 80.6774 110.69 81.2008 110.43C81.7295 110.17 82.3085 110.039 82.9387 110.039C83.9371 110.039 84.7196 110.317 85.2856 110.874C85.8516 111.424 86.1452 112.185 86.1667 113.155V117.576C86.1667 118.458 86.2682 119.159 86.4712 119.68V119.822H84.9173ZM82.4583 118.571C82.9228 118.571 83.3634 118.437 83.78 118.171C84.1962 117.905 84.4979 117.559 84.685 117.132V115.162H83.5234C81.708 115.162 80.8001 115.75 80.8001 116.928C80.8001 117.443 80.9552 117.846 81.2646 118.135C81.5744 118.425 81.9723 118.571 82.4583 118.571ZM90.5 107.891V110.217H92.118V111.486H90.5V117.443C90.5 117.828 90.5722 118.117 90.7164 118.313C90.8605 118.502 91.1062 118.597 91.4533 118.597C91.6239 118.597 91.859 118.562 92.1582 118.491V119.822C91.768 119.941 91.3892 120 91.0205 120C90.3586 120 89.8592 119.778 89.5226 119.334C89.1864 118.89 89.0183 118.26 89.0183 117.443V111.486H87.4404V110.217H89.0183V107.891H90.5ZM95.4662 119.822H93.9842V110.217H95.4662V119.822ZM93.864 107.669C93.864 107.403 93.9363 107.178 94.0804 106.994C94.2298 106.81 94.4487 106.719 94.737 106.719C95.0257 106.719 95.2445 106.81 95.3939 106.994C95.5434 107.178 95.6181 107.403 95.6181 107.669C95.6181 107.935 95.5434 108.157 95.3939 108.335C95.2445 108.512 95.0257 108.601 94.737 108.601C94.4487 108.601 94.2298 108.512 94.0804 108.335C93.9363 108.157 93.864 107.935 93.864 107.669ZM100.705 117.594L102.851 110.217H104.365L101.257 119.822H100.128L96.9881 110.217H98.5018L100.705 117.594ZM109.275 120C108.1 120 107.144 119.574 106.407 118.721C105.67 117.863 105.302 116.718 105.302 115.286V114.984C105.302 114.031 105.465 113.182 105.791 112.436C106.122 111.684 106.581 111.098 107.168 110.678C107.761 110.252 108.402 110.039 109.09 110.039C110.217 110.039 111.093 110.45 111.718 111.273C112.342 112.096 112.655 113.273 112.655 114.806V115.49H106.784C106.805 116.437 107.053 117.203 107.529 117.789C108.009 118.369 108.618 118.659 109.355 118.659C109.878 118.659 110.322 118.541 110.685 118.304C111.048 118.068 111.366 117.754 111.638 117.363L112.543 118.144C111.817 119.381 110.727 120 109.275 120ZM109.09 111.389C108.493 111.389 107.991 111.631 107.585 112.116C107.179 112.596 106.928 113.271 106.832 114.141H111.173V114.016C111.13 113.182 110.927 112.537 110.564 112.081C110.201 111.619 109.71 111.389 109.09 111.389Z" fill="#61DAFB"/>
</g>
<defs>
<clipPath id="clip0_2016_38">
<rect width="135" height="120" fill="white"/>
</clipPath>
</defs>
</svg>
