<svg width="120" height="120" viewBox="0 0 120 120" fill="none" xmlns="http://www.w3.org/2000/svg">
<g clip-path="url(#clip0_2016_33)">
<path d="M98.6639 38.8546C97.3868 38.3627 96.0989 37.9069 94.8014 37.4878C95.0194 36.4878 95.22 35.4999 95.3981 34.5294C98.3222 18.592 96.4106 5.75254 89.8814 1.52517C83.6212 -2.52746 73.3833 1.69833 63.0436 11.802C62.0246 12.7996 61.0282 13.8259 60.0553 14.8799C59.404 14.179 58.7413 13.4917 58.0673 12.8183C47.2308 2.01517 36.3689 -2.53799 29.8467 1.70149C23.5922 5.76675 21.7402 17.8368 24.3727 32.941C24.6346 34.4369 24.9303 35.9251 25.2595 37.4041C23.722 37.8946 22.2384 38.4167 20.8186 38.9725C8.11359 43.9462 0 51.7404 0 59.8252C0 68.1752 8.71031 76.5504 21.9431 81.6289C23.0159 82.0389 24.0977 82.4188 25.1873 82.7683C24.8334 84.3613 24.5193 85.9651 24.2452 87.5778C21.7355 102.42 23.6953 114.205 29.933 118.244C36.3755 122.416 47.1886 118.128 57.7172 107.794C58.5709 106.954 59.4059 106.09 60.2213 105.203C61.2748 106.344 62.3565 107.453 63.465 108.526C73.6641 118.38 83.7366 122.359 89.9681 118.308C96.4045 114.125 98.4966 101.465 95.7806 86.062C95.5667 84.8553 95.3268 83.6546 95.0611 82.461C95.8205 82.2083 96.5658 81.9483 97.2923 81.6778C111.049 76.5604 120 68.2868 120 59.8252C120 51.711 111.624 43.8641 98.6639 38.8546ZM95.6803 76.2147C95.0241 76.4583 94.3509 76.6936 93.6647 76.9225C92.1459 71.5241 90.0966 65.7841 87.5883 59.8531C89.9817 54.0636 91.9523 48.3968 93.4284 43.0336C94.6561 43.4325 95.8472 43.8531 96.9956 44.2968C108.1 48.5894 114.874 54.9352 114.874 59.8252C114.874 65.0336 107.558 71.7952 95.6803 76.2147ZM90.7519 87.1799C91.9528 93.9904 92.1239 100.148 91.3284 104.963C90.6141 109.288 89.1769 112.172 87.3994 113.327C83.618 115.785 75.5306 112.59 66.8086 104.163C65.7775 103.165 64.7713 102.135 63.7912 101.074C67.1728 96.9215 70.552 92.0947 73.8502 86.7336C79.6514 86.1557 85.132 85.2104 90.1022 83.9204C90.3469 85.0294 90.5644 86.1168 90.7519 87.1799ZM40.9106 112.903C37.2159 114.367 34.2731 114.409 32.4942 113.258C28.7091 110.807 27.1355 101.344 29.2819 88.6515C29.537 87.1516 29.8292 85.66 30.158 84.1783C35.0733 85.3994 40.5141 86.2773 46.3289 86.8068C49.6495 92.0525 53.1262 96.8741 56.6302 101.096C55.8855 101.905 55.1233 102.694 54.3441 103.46C49.688 108.03 45.0225 111.272 40.9106 112.903ZM23.6016 76.1825C17.7502 73.9368 12.9178 71.0183 9.60563 67.8336C6.62906 64.972 5.12672 62.1304 5.12672 59.8252C5.12672 54.9189 11.6409 48.661 22.5061 44.4078C23.8247 43.892 25.2047 43.4052 26.6367 42.9483C28.1386 48.4325 30.1083 54.1668 32.4853 59.9652C30.0773 65.8494 28.0795 71.6752 26.5631 77.2241C25.5685 76.9042 24.581 76.5569 23.6016 76.1825ZM29.4038 31.8352C27.1486 18.8946 28.6462 9.13307 32.4155 6.68307C36.4298 4.07359 45.307 7.79412 54.6637 17.1225C55.2739 17.7322 55.8741 18.3542 56.4642 18.9883C52.9777 23.192 49.5328 27.9778 46.2417 33.1925C40.598 33.7799 35.1956 34.7231 30.2287 35.9868C29.9227 34.6111 29.6476 33.2264 29.4038 31.8352ZM81.1664 46.1867C79.9932 43.9114 78.7765 41.6648 77.5172 39.4483C81.3459 39.992 85.0144 40.7136 88.4592 41.5957C87.4252 45.3178 86.1361 49.2089 84.6188 53.1983C83.5097 50.8356 82.3586 48.4979 81.1664 46.1867ZM60.0577 23.102C62.422 25.9783 64.7902 29.1894 67.1194 32.6736C62.3944 32.423 57.6615 32.422 52.9364 32.6704C55.268 29.2183 57.6563 26.0115 60.0577 23.102ZM38.8134 46.2262C37.6361 48.5188 36.5066 50.8419 35.4258 53.1936C33.9333 49.2183 32.6559 45.3094 31.613 41.5346C35.0367 40.6746 38.6878 39.9715 42.4922 39.4378C41.2188 41.6678 39.9922 43.9316 38.8134 46.2262ZM42.6014 80.622C38.6709 80.1294 34.965 79.4626 31.5422 78.6257C32.6016 74.7836 33.907 70.7915 35.4319 66.731C36.517 69.0844 37.6512 71.4089 38.8336 73.7025C40.0495 76.0604 41.3086 78.3699 42.6014 80.622ZM60.1992 96.9536C57.7692 94.0104 55.3458 90.7541 52.9791 87.252C55.2769 87.3531 57.6192 87.4047 60 87.4047C62.4459 87.4047 64.8638 87.3431 67.2436 87.2241C64.9069 90.7894 62.5477 94.0504 60.1992 96.9536ZM84.667 66.5236C86.2711 70.6289 87.623 74.5999 88.6964 78.3762C85.2173 79.2678 81.4608 79.9857 77.5027 80.5189C78.771 78.2612 79.9992 75.9755 81.1866 73.6631C82.3938 71.3125 83.5542 68.9321 84.667 66.5236ZM76.7461 70.7873C74.9284 74.3327 73.0084 77.8109 70.9894 81.2162C67.332 81.5071 63.6665 81.6516 60 81.6494C56.2655 81.6494 52.6331 81.5189 49.1353 81.2641C47.0635 77.8667 45.107 74.3824 43.2698 70.8189C41.4413 67.2742 39.7339 63.6528 38.1502 59.9625C39.7298 56.2714 41.4326 52.6483 43.2548 49.101L43.2544 49.1015C45.0759 45.5532 47.0169 42.0838 49.073 38.701C52.6416 38.3978 56.3011 38.2399 59.9995 38.2399C63.7148 38.2399 67.3795 38.3994 70.9472 38.7046C72.9825 42.0825 74.9111 45.5399 76.7292 49.0704C78.5575 52.61 80.2828 56.2154 81.9023 59.881C80.2995 63.584 78.5796 67.2217 76.7461 70.7873ZM87.3211 6.51149C91.3392 9.11359 92.902 19.6067 90.3773 33.3673C90.2161 34.2452 90.0352 35.1394 89.8383 36.0462C84.8592 34.7557 79.4531 33.7962 73.793 33.1999C70.4958 27.9278 67.0791 23.1346 63.6492 18.9852C64.5481 18.0123 65.4684 17.0646 66.4092 16.1431C75.2686 7.48675 83.5486 4.06886 87.3211 6.51149ZM60 47.7936C65.918 47.7936 70.7156 53.1804 70.7156 59.8252C70.7156 66.4699 65.918 71.8568 60 71.8568C54.082 71.8568 49.2844 66.4699 49.2844 59.8252C49.2844 53.1804 54.082 47.7936 60 47.7936Z" fill="#00D8FF"/>
</g>
<defs>
<clipPath id="clip0_2016_33">
<rect width="120" height="120" fill="white"/>
</clipPath>
</defs>
</svg>
