<svg width="109" height="113" viewBox="0 0 109 113" fill="none" xmlns="http://www.w3.org/2000/svg">
<g clip-path="url(#clip0_2016_45)">
<path d="M63.7 110.28C63.07 111.065 62.2137 111.636 61.2474 111.918C60.2812 112.199 59.2518 112.175 58.2992 111.851C57.3467 111.526 56.5171 110.917 55.9232 110.104C55.3294 109.292 55.0001 108.316 54.98 107.31L53.98 40.0601H99.19C101.032 40.0592 102.836 40.5778 104.397 41.5564C105.957 42.5349 107.209 43.9338 108.01 45.5922C108.811 47.2506 109.128 49.1013 108.925 50.9317C108.721 52.7621 108.006 54.4981 106.86 55.9401L63.7 110.28Z" fill="url(#paint0_linear_2016_45)"/>
<path d="M63.7 110.28C63.07 111.065 62.2137 111.636 61.2474 111.918C60.2812 112.199 59.2518 112.175 58.2992 111.851C57.3467 111.526 56.5171 110.917 55.9232 110.104C55.3294 109.292 55.0001 108.316 54.98 107.31L53.98 40.0601H99.19C101.032 40.0592 102.836 40.5778 104.397 41.5564C105.957 42.5349 107.209 43.9338 108.01 45.5922C108.811 47.2506 109.128 49.1013 108.925 50.9317C108.721 52.7621 108.006 54.4981 106.86 55.9401L63.7 110.28Z" fill="url(#paint1_linear_2016_45)" fill-opacity="0.2"/>
<path d="M45.32 2.06995C45.95 1.28524 46.8063 0.713527 47.7726 0.4325C48.7388 0.151474 49.7682 0.174764 50.7208 0.499206C51.6733 0.823648 52.5029 1.43351 53.0968 2.24591C53.6906 3.0583 54.0199 4.03384 54.04 5.03995L54.48 72.2899H9.82999C7.99089 72.2875 6.18968 71.767 4.63269 70.7882C3.07569 69.8094 1.8259 68.4118 1.02647 66.7555C0.227035 65.0993 -0.089701 63.2513 0.112543 61.4234C0.314787 59.5954 1.02783 57.8614 2.16999 56.4199L45.32 2.06995Z" fill="#3ECF8E"/>
</g>
<defs>
<linearGradient id="paint0_linear_2016_45" x1="53.97" y1="54.9701" x2="94.16" y2="71.8301" gradientUnits="userSpaceOnUse">
<stop stop-color="#249361"/>
<stop offset="1" stop-color="#3ECF8E"/>
</linearGradient>
<linearGradient id="paint1_linear_2016_45" x1="36.16" y1="30.5801" x2="54.48" y2="65.0801" gradientUnits="userSpaceOnUse">
<stop/>
<stop offset="1" stop-opacity="0"/>
</linearGradient>
<clipPath id="clip0_2016_45">
<rect width="109" height="113" fill="white"/>
</clipPath>
</defs>
</svg>
