<svg width="120" height="120" viewBox="0 0 120 120" fill="none" xmlns="http://www.w3.org/2000/svg">
<g clip-path="url(#clip0_2016_15)">
<path d="M0 60V120H120V0H0V60Z" fill="#007ACC"/>
<path d="M26.5364 60.3985L26.4984 65.3124H42.1172V109.694H53.1656V65.3124H68.7844V60.4937C68.7844 57.8265 68.7272 55.5981 68.6512 55.5409C68.594 55.4649 59.0892 55.4265 47.5654 55.4457L26.594 55.5029L26.5369 60.3981L26.5364 60.3985ZM96.8283 55.3632C99.8756 56.1254 102.2 57.4773 104.333 59.687C105.438 60.8682 107.076 63.0207 107.209 63.5349C107.247 63.6873 102.028 67.1921 98.8664 69.1538C98.752 69.2303 98.2945 68.7348 97.7803 67.9726C96.2376 65.7254 94.6186 64.7537 92.1422 64.5826C88.5047 64.3346 86.1614 66.2396 86.1806 69.4201C86.1806 70.3538 86.3137 70.906 86.6948 71.6682C87.495 73.3253 88.9804 74.3157 93.6473 76.3346C102.238 80.0303 105.914 82.4682 108.2 85.9346C110.752 89.8018 111.323 95.9729 109.59 100.563C107.685 105.554 102.962 108.945 96.3136 110.068C94.2567 110.43 89.3808 110.373 87.1711 109.973C82.3523 109.116 77.7806 106.735 74.9615 103.611C73.8567 102.392 71.7042 99.211 71.8378 98.9823C71.895 98.9064 72.39 98.6017 72.9422 98.2778C73.4756 97.9731 75.495 96.8106 77.3995 95.7062L80.8472 93.706L81.5709 94.7729C82.5806 96.3156 84.7898 98.4301 86.1234 99.1346C89.9517 101.154 95.2092 100.868 97.7995 98.544C98.9044 97.5348 99.3614 96.4871 99.3614 94.944C99.3614 93.5537 99.1898 92.9443 98.4661 91.8971C97.5333 90.5635 95.6283 89.4395 90.2184 87.0971C84.0281 84.4299 81.3614 82.7729 78.9234 80.1442C77.5139 78.6207 76.1803 76.1823 75.6281 74.1442C75.1711 72.4492 75.0562 68.2014 75.4186 66.4871C76.695 60.5059 81.209 56.3349 87.7233 55.0965C89.8373 54.6967 94.7517 54.8485 96.8283 55.3632Z" fill="white"/>
</g>
<defs>
<clipPath id="clip0_2016_15">
<rect width="120" height="120" fill="white"/>
</clipPath>
</defs>
</svg>
